<svg xmlns="http://www.w3.org/2000/svg" xmlns:xlink="http://www.w3.org/1999/xlink" xml:space="preserve" version="1.1" style="shape-rendering:geometricPrecision;text-rendering:geometricPrecision;image-rendering:optimizeQuality;" viewBox="0 0 231 420" x="0px" y="0px" fill-rule="evenodd" clip-rule="evenodd"><defs><style type="text/css">

    .fil1 {fill:black}
    .fil0 {fill:black;fill-rule:nonzero}

  </style></defs><g><path class="fil0" d="M11 21l25 0 1 -9c1,-7 7,-12 14,-12l129 0c7,0 13,5 14,12l1 9 25 0c6,0 11,5 11,11l0 28c0,6 -5,12 -11,12l-6 0 -2 41c7,1 12,7 11,15l0 0 -7 89c0,7 -5,12 -11,13l-5 92c-1,8 -7,14 -14,14l-141 0c-7,0 -13,-6 -14,-14l-5 -92c-6,-1 -11,-6 -11,-13l0 0 -7 -89 0 0c-1,-8 4,-14 11,-15l-2 -41 -6 0c-6,0 -11,-6 -11,-12l0 -28c0,-6 5,-11 11,-11zm187 51l-165 0 3 40 160 0 2 -40zm-9 158l-147 0 5 90 137 0 5 -90zm18 -102l-183 0 7 86 169 0 7 -86zm-155 -107l127 0 -1 -5 -125 0 -1 5zm163 16c-66,0 -133,0 -199,0l0 18 199 0 0 -18z"/><path class="fil1" d="M82 173l-1 0 0 1c0,1 0,1 -1,1l-1 1 -1 1c-1,0 -1,1 -1,1 -1,0 -1,0 -2,1 0,0 -1,1 -1,1 0,0 0,0 -1,0 0,0 0,0 0,0 0,0 -1,0 -1,1 -1,0 -1,0 -1,0 0,0 0,0 0,0l-1 0c0,0 -1,0 -2,1l-1 0 0 0c-1,0 -1,1 -1,1 -1,0 -1,-1 -1,-1 0,0 0,0 -1,0l0 0c0,0 0,1 0,1 0,0 -1,-1 -1,-1l-1 0c0,0 0,0 0,0l-1 0 0 0 -1 0 -1 -1c0,0 0,0 -1,0l0 -1c-1,0 -2,0 -2,0 0,0 0,0 0,-1 0,0 0,0 0,0 0,-1 -1,-1 -1,-1 0,0 0,0 0,-1 0,0 0,0 0,0 -1,-1 -1,-1 -1,-1 0,-1 0,-1 0,-1l0 -1 0 -1c0,0 0,-1 0,-1l0 -1 0 -1 0 0 0 -1 1 -2 1 -1 0 0 0 -1c0,0 0,0 0,-1 0,-1 0,-1 1,-1 0,-1 0,-1 0,-1 0,0 0,-1 0,-1l1 0c0,-1 0,-1 1,-1l0 -1 1 -1 0 0c1,-1 1,-1 1,-1 1,-1 1,-1 1,-1l1 0c0,-1 0,-1 1,-1l0 0 0 0 1 0 0 0c1,0 1,0 2,0l1 0c0,0 0,0 0,0l2 1 3 2c1,1 1,1 1,1l0 1c1,1 1,1 1,2l0 1c0,0 0,0 0,1 0,0 0,0 0,0 0,0 0,0 -1,1 0,0 0,0 0,0l-1 0 0 0c0,0 -1,0 -1,0l0 0c0,-1 0,-1 0,-1 0,0 0,0 0,0l0 -1 0 -1 0 -1 0 -1c-1,-1 -1,-2 -2,-2 -1,0 -1,0 -1,0l0 0c0,-1 0,-1 0,-1 0,0 0,0 0,0l-1 0 -1 0c0,0 -1,0 -1,0l0 0 -1 0 0 0 -1 0c0,0 0,0 0,0 -1,0 -1,0 -1,0l-1 1 -1 2 -1 1 -1 1 0 1 -1 0 0 1 -1 2 0 1 -1 0 1 1 -1 1 0 1 0 0 0 0 0 1 0 1 0 2c0,1 0,1 0,1l1 1 0 0 0 1 0 0 1 1 0 1 1 1 0 0 2 0 1 1 1 0 1 0 1 0c0,0 0,0 0,0 0,0 1,0 1,0l0 0 1 0 0 0 1 0c0,0 1,0 1,-1 0,0 0,0 1,0 0,0 0,0 1,0 0,0 0,-1 1,-1 0,0 0,0 1,0 0,0 1,0 1,-1l1 0c0,0 0,-1 1,-1l1 -1 1 0 2 -3 1 0 1 0zm18 -3l0 1 0 0 0 1c0,1 0,1 0,1l0 1 -1 1 0 0c0,0 0,1 -1,2l0 0 0 0 -1 1 0 1 -1 0 0 1 -1 0c0,0 0,1 0,1 0,0 -1,0 -1,0 0,0 0,0 -1,0 0,1 0,1 -1,1 0,0 0,1 -1,1 0,0 0,0 0,0 -1,0 -1,0 -1,0l-1 1 0 -1 -1 1 0 -1 -2 0c0,0 -1,-1 -1,-2l0 0 -1 -2 0 -1 0 -1 0 -1c0,0 0,0 0,0 0,-1 0,-1 0,-1 0,0 0,-1 1,-1l0 0c0,-1 0,-1 0,-1l0 0c1,-1 1,-1 1,-1l0 -1 0 0 0 -1c0,0 0,-1 0,-1l0 -1c0,0 0,0 0,0 1,-1 1,-1 1,-1 0,0 0,-1 0,-1l0 -1c0,0 0,0 0,0 1,0 1,0 1,0l0 -1c0,0 0,0 0,0 0,-1 0,-1 0,-1 1,0 2,-1 3,-2l0 0c0,0 0,0 0,0 0,0 1,0 1,0 0,0 0,0 1,0l1 -1 0 1c0,0 1,0 1,0l1 0c0,1 0,1 0,1l0 0c1,0 1,1 1,1l1 1 0 0 1 1 1 2 0 1 0 2zm-1 1c0,0 0,0 0,0 0,-1 0,-1 0,-1 0,0 0,0 0,0l0 0c0,0 0,0 0,-1l0 0 -1 -1 0 -1 0 0c0,-1 -1,-1 -1,-1l0 0c0,0 0,0 0,0 0,0 0,-1 0,-1l0 0c0,0 0,0 0,0l0 -1 -1 0 0 0 0 0 0 -1 -1 0 -1 -1 -1 0c-1,0 -1,0 -1,1l0 2 -1 0 -2 1 0 0 0 1 -1 1 0 0c0,0 0,1 0,1 0,1 0,1 0,1l-1 0c0,0 0,1 0,1 0,1 0,1 -1,1l0 1 0 0 0 1 0 0 0 1 -1 1 1 1 0 1 -1 1 0 1 1 1c0,0 0,1 1,1l0 0 0 0 1 0 0 0 2 0 0 0 0 -1 1 0c0,0 1,0 1,0l0 0 1 0 0 0 0 -1c1,0 1,0 1,-1l1 0 0 0 1 -1 0 0c0,-1 0,-1 1,-1l0 0c0,-1 0,-1 1,-2l0 0 0 0 0 -1c0,0 1,0 1,0l0 0c0,-1 0,-1 0,-1 0,0 0,0 0,0 0,0 0,0 0,0 0,-1 0,-1 0,-1 0,0 0,-1 0,-1 0,0 0,0 0,0zm27 -20c0,0 0,0 0,0l-1 0 0 1 0 -1c-1,-1 -1,-2 -1,-2 0,0 -1,-1 -1,-1l0 1c0,-1 -1,-1 -2,-1l0 1c0,-1 -1,-1 -1,-1l-1 1c0,0 0,0 0,0 0,0 0,0 -1,0 0,0 0,0 0,0 0,0 0,0 0,0 0,0 -1,1 -2,3 0,1 0,2 0,2l0 0c-1,1 -1,1 -1,2l0 1 0 0c-1,1 -1,2 -1,2l0 1 -1 2 1 1c0,0 -1,0 -1,1 0,0 0,0 0,1 0,0 0,0 1,0l0 0c0,0 1,0 1,0l0 0c0,0 0,0 1,0 0,0 0,0 0,0 1,0 1,0 1,0l1 0c0,0 0,0 0,0 0,0 1,0 1,0l1 0c0,0 1,0 1,0 0,0 0,0 0,0 0,0 1,0 1,0 0,0 0,0 0,0 1,0 1,0 1,0 0,0 0,0 0,0 0,1 0,1 0,1l-1 1 -2 -1c0,0 -1,1 -1,1 0,-1 -1,-1 -1,-1 0,0 0,0 -1,1 0,0 0,0 -1,0l0 0 -1 0 0 0 -1 0 0 0c0,0 0,0 0,0 -1,1 -1,1 -1,1l-1 0 0 1 0 1 0 1 0 1 0 2 0 1 0 1 -1 1 1 1 0 0c0,0 0,0 -1,1 0,0 0,0 0,1l0 1c0,1 0,1 1,1l-1 1 1 1 -1 1 1 3 0 3 1 1 0 0 -1 1c1,0 1,1 1,1l0 1c0,0 0,0 0,1 0,0 0,0 0,0l-1 0 0 -1 0 0 -1 -3 0 -1 0 0 0 -1 0 -1 0 -1c0,0 0,0 0,0 0,0 0,-1 0,-1 0,0 0,0 0,0l-1 -3 0 0 0 -1 0 -1 0 -1 0 0 0 -3 0 0 0 -2 1 -1 -1 -1 1 -1 0 -3c0,0 0,-1 0,-1 0,0 0,0 0,-1 0,0 0,0 0,-1l-1 1 -1 0 0 0 -1 -1 0 1 -1 0 -1 0 -1 0 -1 0 0 0c-1,0 -1,0 -1,-1 0,0 -1,0 -1,-1l1 0c0,-1 0,-1 0,-1 0,0 0,0 1,1l0 0 2 0 2 0 1 -1 1 1c1,0 1,0 1,0 0,0 0,0 1,-1l0 0 0 -1 0 -1c0,0 0,-1 0,-1l0 -1c0,0 0,-1 0,-1 0,0 0,0 0,0l0 -1 1 0 0 -2 0 0 0 -1c1,0 1,-1 1,-1 0,0 0,0 0,0 0,-1 0,-1 0,-1 0,-1 0,-1 0,-1 0,0 0,0 1,-1 0,0 0,0 0,0l0 0 0 -1c0,0 0,0 0,0l0 -1c0,0 0,0 0,0 1,-1 1,-1 1,-2 1,0 1,0 1,-1l1 0 1 0 0 -1 1 1c0,-1 1,-1 1,-1l1 1c1,0 1,0 1,0 0,0 0,0 1,0 0,0 0,0 0,0l1 1c0,0 0,1 1,1l0 2 0 0zm20 0c0,0 0,0 0,0l-1 0 0 1 0 -1c-1,-1 -1,-2 -1,-2 0,0 -1,-1 -1,-1l0 1c0,-1 -1,-1 -2,-1l0 1c0,-1 -1,-1 -1,-1l-1 1c0,0 0,0 0,0 0,0 0,0 -1,0 0,0 0,0 0,0 0,0 0,0 0,0 0,0 -1,1 -2,3 0,1 0,2 0,2l0 0c-1,1 -1,1 -1,2l0 1 0 0c-1,1 -1,2 -1,2l0 1 -1 2 1 1c0,0 -1,0 -1,1 0,0 0,0 0,1 0,0 0,0 1,0l0 0c0,0 1,0 1,0l0 0c0,0 0,0 1,0 0,0 0,0 0,0 1,0 1,0 1,0l1 0c0,0 0,0 0,0 0,0 1,0 1,0l1 0c0,0 1,0 1,0 0,0 0,0 0,0 0,0 1,0 1,0 0,0 0,0 0,0 1,0 1,0 1,0 0,0 0,0 0,0 0,1 0,1 0,1l-1 1 -2 -1c0,0 -1,1 -1,1 0,-1 -1,-1 -1,-1 0,0 0,0 -1,1 0,0 0,0 -1,0l0 0 -1 0 0 0 -1 0 0 0c0,0 0,0 0,0 -1,1 -1,1 -1,1l-1 0 0 1 0 1 0 1 0 1 0 2 0 1 0 1 -1 1 1 1 0 0c0,0 0,0 -1,1 0,0 0,0 0,1l0 1c0,1 0,1 1,1l-1 1 1 1 -1 1 1 3 0 3 1 1 0 0 -1 1c1,0 1,1 1,1l0 1c0,0 0,0 0,1 0,0 0,0 0,0l-1 0 0 -1 0 0 -1 -3 0 -1 0 0 0 -1 0 -1 0 -1c0,0 0,0 0,0 0,0 0,-1 0,-1 0,0 0,0 0,0l-1 -3 0 0 0 -1 0 -1 0 -1 0 0 0 -3 0 0 0 -2 1 -1 -1 -1 1 -1 0 -3c0,0 0,-1 0,-1 0,0 0,0 0,-1 0,0 0,0 0,-1l-1 1 -1 0 0 0 -1 -1 0 1 -1 0 -1 0 -1 0 -1 0 0 0c-1,0 -1,0 -1,-1 0,0 -1,0 -1,-1l1 0c0,-1 0,-1 0,-1 0,0 0,0 1,1l0 0 2 0 2 0 1 -1 1 1c1,0 1,0 1,0 0,0 0,0 1,-1l0 0 0 -1 0 -1c0,0 0,-1 0,-1l0 -1c0,0 0,-1 0,-1 0,0 0,0 0,0l0 -1 1 0 0 -2 0 0 0 -1c1,0 1,-1 1,-1 0,0 0,0 0,0 0,-1 0,-1 0,-1 0,-1 0,-1 0,-1 0,0 0,0 1,-1 0,0 0,0 0,0l0 0 0 -1c0,0 0,0 0,0l0 -1c0,0 0,0 0,0 1,-1 1,-1 1,-2 1,0 1,0 1,-1l1 0 1 0 0 -1 1 1c0,-1 1,-1 1,-1l1 1c1,0 1,0 1,0 0,0 0,0 1,0 0,0 0,0 0,0l1 1c0,0 0,1 1,1l0 2 0 0zm13 26c0,1 0,1 0,1 0,0 0,0 0,1 -1,0 -1,1 -1,1l0 0 -1 1 -1 0 -1 1 0 1 -1 0 0 0 -1 0 0 1 0 0c-1,0 -1,0 -1,0l-1 0c0,0 0,0 0,0 -1,0 -1,0 -1,0 0,0 -1,0 -1,0l0 0c-1,0 -2,-1 -2,-1l0 -1 -1 0 0 -1c0,0 0,0 -1,0l0 -1 0 -2 0 -2 0 -1 0 -1 0 -1 0 0c0,-1 1,-1 1,-1 0,0 0,0 0,-1 0,0 0,0 0,-1l0 0 0 -1c0,0 0,-1 0,-1l0 -1c0,-1 0,-1 0,-1 0,0 0,0 1,0 0,0 0,0 1,0 0,0 0,0 0,0 0,-1 0,-1 0,-1 0,-1 1,-2 1,-2 0,0 1,-1 1,-1l0 0 0 -1 0 0c0,0 1,0 1,-1 0,0 1,0 1,-1 0,0 0,0 1,0 0,0 0,0 0,0 1,-1 1,-1 1,-1 0,0 0,0 0,1l1 0 0 0 0 0c1,0 1,1 1,1l1 0c0,0 0,0 0,0l0 0c0,0 1,1 1,2l-1 1 1 1 -1 0 0 2 -1 1 0 1c-2,1 -3,2 -3,2 0,0 -1,0 -1,0 0,0 0,0 0,0l-1 1 -1 0 -1 0 0 0c0,0 -1,0 -1,0 -1,0 -1,1 -1,2l0 0c0,1 -1,1 -1,1l0 1 0 1 0 1 0 0 0 1c0,0 0,0 0,1 0,0 0,1 1,1 0,0 0,0 0,1 0,0 1,0 1,0l0 1 2 0 2 0 1 0c0,-1 1,-1 1,-1l0 0 1 0 0 -1c1,0 1,0 1,0 0,0 0,0 0,0 0,-1 0,-1 1,-1l0 0c1,0 1,-1 1,-2 0,0 1,0 1,0zm-4 -11c0,0 0,-1 0,-1l0 -1c1,0 1,-1 1,-1 0,0 0,0 0,-1 0,0 0,0 0,-1l-1 0c0,0 -1,0 -1,0l0 0c0,0 0,0 0,0 -1,0 -1,0 -2,0l0 1c0,0 0,0 0,0 0,0 0,0 0,0 0,0 0,0 0,0 0,0 0,0 -1,0 0,0 0,0 0,0 0,0 0,0 0,0 0,0 0,0 0,0 0,1 0,1 0,1l0 0 -1 2 -1 0c0,0 0,0 0,1 0,0 0,1 -1,2l0 0 0 1 1 0c1,0 1,-1 2,-1l0 0c0,0 0,0 0,0 0,0 1,0 1,0l0 0 1 -1 0 0 0 0c1,0 1,-1 2,-1l0 0zm22 11c0,1 0,1 0,1 0,0 0,0 0,1 0,0 -1,1 -1,1l0 0 -1 1 0 0 -2 1 0 1 0 0 -1 0 -1 0 0 1 0 0c0,0 -1,0 -1,0l0 0c-1,0 -1,0 -1,0 -1,0 -1,0 -1,0 0,0 0,0 -1,0l0 0c-1,0 -2,-1 -2,-1l0 -1 -1 0 0 -1c0,0 0,0 0,0l0 -1 -1 -2 0 -2 0 -1 0 -1 1 -1 -1 0c1,-1 1,-1 1,-1 0,0 0,0 0,-1 0,0 0,0 0,-1l0 0 0 -1c0,0 0,-1 0,-1l0 -1c0,-1 0,-1 0,-1 0,0 1,0 1,0 0,0 0,0 1,0 0,0 0,0 0,0 0,-1 0,-1 0,-1 0,-1 1,-2 1,-2 1,0 1,-1 1,-1l0 0 0 -1 1 0c0,0 0,0 0,-1 0,0 1,0 1,-1 0,0 1,0 1,0 0,0 0,0 0,0 1,-1 1,-1 1,-1 0,0 0,0 1,1l0 0 0 0 1 0c0,0 0,1 1,1l0 0c0,0 0,0 0,0l0 0c0,0 1,1 1,2l0 1 0 1 -1 0 0 2 -1 1 0 1c-1,1 -2,2 -3,2 0,0 0,0 0,0 -1,0 -1,0 -1,0l-1 1 -1 0 -1 0 0 0c0,0 0,0 -1,0 -1,0 -1,1 -1,2l0 0c0,1 0,1 0,1l-1 1 1 1 -1 1 0 0 0 1c0,0 0,0 0,1 1,0 1,1 1,1 0,0 0,0 0,1 1,0 1,0 2,0l0 1 1 0 2 0 1 0c1,-1 1,-1 1,-1l1 0 0 0 0 -1c1,0 1,0 1,0 0,0 0,0 0,0 1,-1 1,-1 1,-1l0 0c1,0 1,-1 1,-2 1,0 1,0 1,0zm-4 -11c0,0 0,-1 1,-1l0 -1c0,0 0,-1 0,-1 0,0 0,0 0,-1 0,0 0,0 0,-1l-1 0c0,0 0,0 0,0l-1 0c0,0 0,0 0,0 -1,0 -1,0 -2,0l0 1c0,0 0,0 0,0 0,0 0,0 0,0 0,0 0,0 0,0 0,0 0,0 0,0 0,0 0,0 0,0 0,0 0,0 0,0 0,0 0,0 -1,0 0,1 0,1 0,1l0 0 -1 2 0 0c0,0 -1,0 -1,1 0,0 0,1 -1,2l0 0 1 1 0 0c1,0 1,-1 2,-1l0 0c0,0 0,0 1,0 0,0 0,0 0,0l1 0 0 -1 0 0 1 0c0,0 0,-1 1,-1l0 0z"/></g><text x="0" y="351" fill="#000000" font-size="5px" font-weight="bold" font-family="'Helvetica Neue', Helvetica, Arial-Unicode, Arial, Sans-serif"></text><text x="0" y="356" fill="#000000" font-size="5px" font-weight="bold" font-family="'Helvetica Neue', Helvetica, Arial-Unicode, Arial, Sans-serif"></text></svg>
